<mxfile host="Electron" modified="2024-04-04T09:59:51.791Z" agent="Mozilla/5.0 (Windows NT 10.0; Win64; x64) AppleWebKit/537.36 (KHTML, like Gecko) draw.io/24.1.0 Chrome/120.0.6099.109 Electron/28.1.0 Safari/537.36" etag="6L3ewFgLW6-AoiLMtBnI" version="24.1.0" type="device">
  <diagram id="C5RBs43oDa-KdzZeNtuy" name="Page-1">
    <mxGraphModel dx="3545" dy="2095" grid="1" gridSize="10" guides="1" tooltips="1" connect="1" arrows="1" fold="1" page="1" pageScale="1" pageWidth="827" pageHeight="1169" math="0" shadow="0">
      <root>
        <mxCell id="WIyWlLk6GJQsqaUBKTNV-0" />
        <mxCell id="WIyWlLk6GJQsqaUBKTNV-1" parent="WIyWlLk6GJQsqaUBKTNV-0" />
        <mxCell id="PscwnY0Rai2JxpB6ASCo-1" value="" style="rounded=0;whiteSpace=wrap;html=1;" vertex="1" parent="WIyWlLk6GJQsqaUBKTNV-1">
          <mxGeometry x="2050" width="1920" height="2010" as="geometry" />
        </mxCell>
        <mxCell id="PscwnY0Rai2JxpB6ASCo-62" value="" style="rounded=0;whiteSpace=wrap;html=1;" vertex="1" parent="WIyWlLk6GJQsqaUBKTNV-1">
          <mxGeometry x="2050" y="130" width="940" height="670" as="geometry" />
        </mxCell>
        <mxCell id="PscwnY0Rai2JxpB6ASCo-0" value="" style="rounded=0;whiteSpace=wrap;html=1;" vertex="1" parent="WIyWlLk6GJQsqaUBKTNV-1">
          <mxGeometry width="1920" height="1080" as="geometry" />
        </mxCell>
        <mxCell id="PscwnY0Rai2JxpB6ASCo-2" value="" style="rounded=0;whiteSpace=wrap;html=1;" vertex="1" parent="WIyWlLk6GJQsqaUBKTNV-1">
          <mxGeometry x="4100" y="10" width="1920" height="1080" as="geometry" />
        </mxCell>
        <mxCell id="PscwnY0Rai2JxpB6ASCo-3" value="" style="rounded=0;whiteSpace=wrap;html=1;" vertex="1" parent="WIyWlLk6GJQsqaUBKTNV-1">
          <mxGeometry x="6150" width="1920" height="3010" as="geometry" />
        </mxCell>
        <mxCell id="PscwnY0Rai2JxpB6ASCo-4" value="" style="rounded=0;whiteSpace=wrap;html=1;" vertex="1" parent="WIyWlLk6GJQsqaUBKTNV-1">
          <mxGeometry y="1080" width="1920" height="2160" as="geometry" />
        </mxCell>
        <mxCell id="PscwnY0Rai2JxpB6ASCo-5" value="" style="rounded=0;whiteSpace=wrap;html=1;" vertex="1" parent="WIyWlLk6GJQsqaUBKTNV-1">
          <mxGeometry width="1920" height="130" as="geometry" />
        </mxCell>
        <mxCell id="PscwnY0Rai2JxpB6ASCo-6" value="" style="rounded=0;whiteSpace=wrap;html=1;" vertex="1" parent="WIyWlLk6GJQsqaUBKTNV-1">
          <mxGeometry y="130" width="1920" height="570" as="geometry" />
        </mxCell>
        <mxCell id="PscwnY0Rai2JxpB6ASCo-7" value="" style="rounded=0;whiteSpace=wrap;html=1;" vertex="1" parent="WIyWlLk6GJQsqaUBKTNV-1">
          <mxGeometry y="700" width="1920" height="380" as="geometry" />
        </mxCell>
        <mxCell id="PscwnY0Rai2JxpB6ASCo-8" value="" style="rounded=0;whiteSpace=wrap;html=1;" vertex="1" parent="WIyWlLk6GJQsqaUBKTNV-1">
          <mxGeometry y="1080" width="1920" height="380" as="geometry" />
        </mxCell>
        <mxCell id="PscwnY0Rai2JxpB6ASCo-9" value="" style="rounded=0;whiteSpace=wrap;html=1;" vertex="1" parent="WIyWlLk6GJQsqaUBKTNV-1">
          <mxGeometry y="1460" width="1920" height="380" as="geometry" />
        </mxCell>
        <mxCell id="PscwnY0Rai2JxpB6ASCo-10" value="" style="rounded=0;whiteSpace=wrap;html=1;" vertex="1" parent="WIyWlLk6GJQsqaUBKTNV-1">
          <mxGeometry y="1840" width="1920" height="700" as="geometry" />
        </mxCell>
        <mxCell id="PscwnY0Rai2JxpB6ASCo-11" value="" style="rounded=0;whiteSpace=wrap;html=1;" vertex="1" parent="WIyWlLk6GJQsqaUBKTNV-1">
          <mxGeometry y="2540" width="1920" height="700" as="geometry" />
        </mxCell>
        <mxCell id="PscwnY0Rai2JxpB6ASCo-12" value="" style="rounded=0;whiteSpace=wrap;html=1;" vertex="1" parent="WIyWlLk6GJQsqaUBKTNV-1">
          <mxGeometry x="457" y="410" width="1006" height="70" as="geometry" />
        </mxCell>
        <mxCell id="PscwnY0Rai2JxpB6ASCo-13" value="" style="rounded=1;whiteSpace=wrap;html=1;" vertex="1" parent="WIyWlLk6GJQsqaUBKTNV-1">
          <mxGeometry x="900" y="540" width="120" height="60" as="geometry" />
        </mxCell>
        <mxCell id="PscwnY0Rai2JxpB6ASCo-14" value="&lt;font style=&quot;font-size: 24px;&quot;&gt;Sök&lt;/font&gt;" style="text;html=1;align=center;verticalAlign=middle;whiteSpace=wrap;rounded=0;" vertex="1" parent="WIyWlLk6GJQsqaUBKTNV-1">
          <mxGeometry x="930" y="555" width="60" height="30" as="geometry" />
        </mxCell>
        <mxCell id="PscwnY0Rai2JxpB6ASCo-15" value="&lt;font style=&quot;font-size: 33px;&quot;&gt;&lt;b&gt;Sök en bok&lt;/b&gt;&lt;/font&gt;" style="text;html=1;align=center;verticalAlign=middle;whiteSpace=wrap;rounded=0;" vertex="1" parent="WIyWlLk6GJQsqaUBKTNV-1">
          <mxGeometry x="720" y="300" width="480" height="70" as="geometry" />
        </mxCell>
        <mxCell id="PscwnY0Rai2JxpB6ASCo-16" value="&lt;font style=&quot;font-size: 26px;&quot;&gt;Hem&lt;/font&gt;" style="text;html=1;align=center;verticalAlign=middle;whiteSpace=wrap;rounded=0;" vertex="1" parent="WIyWlLk6GJQsqaUBKTNV-1">
          <mxGeometry x="740" y="60" width="60" height="30" as="geometry" />
        </mxCell>
        <mxCell id="PscwnY0Rai2JxpB6ASCo-17" value="&lt;font style=&quot;font-size: 26px;&quot;&gt;Böcker&lt;/font&gt;" style="text;html=1;align=center;verticalAlign=middle;whiteSpace=wrap;rounded=0;" vertex="1" parent="WIyWlLk6GJQsqaUBKTNV-1">
          <mxGeometry x="850" y="60" width="60" height="30" as="geometry" />
        </mxCell>
        <mxCell id="PscwnY0Rai2JxpB6ASCo-18" value="&lt;font style=&quot;font-size: 26px;&quot;&gt;Om oss&lt;/font&gt;" style="text;html=1;align=center;verticalAlign=middle;whiteSpace=wrap;rounded=0;" vertex="1" parent="WIyWlLk6GJQsqaUBKTNV-1">
          <mxGeometry x="950" y="60" width="100" height="30" as="geometry" />
        </mxCell>
        <mxCell id="PscwnY0Rai2JxpB6ASCo-19" value="&lt;font style=&quot;font-size: 26px;&quot;&gt;Kontakt&lt;/font&gt;" style="text;html=1;align=center;verticalAlign=middle;whiteSpace=wrap;rounded=0;" vertex="1" parent="WIyWlLk6GJQsqaUBKTNV-1">
          <mxGeometry x="1070" y="60" width="110" height="30" as="geometry" />
        </mxCell>
        <mxCell id="PscwnY0Rai2JxpB6ASCo-20" value="&lt;font style=&quot;font-size: 25px;&quot;&gt;Populära kategorier&lt;/font&gt;" style="text;html=1;align=center;verticalAlign=middle;whiteSpace=wrap;rounded=0;" vertex="1" parent="WIyWlLk6GJQsqaUBKTNV-1">
          <mxGeometry x="835" y="740" width="250" height="30" as="geometry" />
        </mxCell>
        <mxCell id="PscwnY0Rai2JxpB6ASCo-21" value="&lt;font style=&quot;font-size: 25px;&quot;&gt;Nya böcker&lt;/font&gt;" style="text;html=1;align=center;verticalAlign=middle;whiteSpace=wrap;rounded=0;" vertex="1" parent="WIyWlLk6GJQsqaUBKTNV-1">
          <mxGeometry x="835" y="1120" width="250" height="30" as="geometry" />
        </mxCell>
        <mxCell id="PscwnY0Rai2JxpB6ASCo-23" value="&lt;font style=&quot;font-size: 25px;&quot;&gt;Utvalda böcker&lt;/font&gt;" style="text;html=1;align=center;verticalAlign=middle;whiteSpace=wrap;rounded=0;" vertex="1" parent="WIyWlLk6GJQsqaUBKTNV-1">
          <mxGeometry x="835" y="1500" width="250" height="30" as="geometry" />
        </mxCell>
        <mxCell id="PscwnY0Rai2JxpB6ASCo-25" value="" style="rounded=0;whiteSpace=wrap;html=1;" vertex="1" parent="WIyWlLk6GJQsqaUBKTNV-1">
          <mxGeometry x="950" y="1840" width="970" height="700" as="geometry" />
        </mxCell>
        <mxCell id="PscwnY0Rai2JxpB6ASCo-26" value="" style="rounded=0;whiteSpace=wrap;html=1;" vertex="1" parent="WIyWlLk6GJQsqaUBKTNV-1">
          <mxGeometry x="950" y="2540" width="970" height="700" as="geometry" />
        </mxCell>
        <mxCell id="PscwnY0Rai2JxpB6ASCo-27" value="Actor" style="shape=umlActor;verticalLabelPosition=bottom;verticalAlign=top;html=1;outlineConnect=0;" vertex="1" parent="WIyWlLk6GJQsqaUBKTNV-1">
          <mxGeometry x="290" y="1990" width="350" height="400" as="geometry" />
        </mxCell>
        <mxCell id="PscwnY0Rai2JxpB6ASCo-28" value="&lt;h1 style=&quot;margin-top: 0px; font-size: 50px;&quot;&gt;&lt;span style=&quot;background-color: initial;&quot;&gt;Vi är best&lt;br&gt;&lt;/span&gt;&lt;span style=&quot;background-color: initial; font-weight: normal;&quot;&gt;Lorem ipsum dolor sit amet, consectetur adipisicing elit, sed do eiusmod tempor incididunt ut labore et dolore magna aliqua.&lt;/span&gt;&lt;br&gt;&lt;/h1&gt;" style="text;html=1;whiteSpace=wrap;overflow=hidden;rounded=0;" vertex="1" parent="WIyWlLk6GJQsqaUBKTNV-1">
          <mxGeometry x="1020" y="1930" width="830" height="550" as="geometry" />
        </mxCell>
        <mxCell id="PscwnY0Rai2JxpB6ASCo-29" value="&lt;h1 style=&quot;margin-top: 0px; font-size: 50px;&quot;&gt;&lt;font style=&quot;font-size: 50px;&quot;&gt;Kontaktupggifter&lt;/font&gt;&lt;/h1&gt;&lt;p style=&quot;font-size: 50px;&quot;&gt;&lt;font style=&quot;font-size: 50px;&quot;&gt;Lorem ipsum dolor sit amet, consectetur adipisicing elit, sed do eiusmod tempor incididunt ut labore et dolore magna aliqua.&lt;/font&gt;&lt;/p&gt;" style="text;html=1;whiteSpace=wrap;overflow=hidden;rounded=0;" vertex="1" parent="WIyWlLk6GJQsqaUBKTNV-1">
          <mxGeometry x="60" y="2690" width="840" height="590" as="geometry" />
        </mxCell>
        <mxCell id="PscwnY0Rai2JxpB6ASCo-30" value="&lt;font style=&quot;font-size: 40px;&quot;&gt;Map&lt;/font&gt;" style="html=1;whiteSpace=wrap;strokeColor=none;fillColor=#0079D6;labelPosition=center;verticalLabelPosition=middle;verticalAlign=top;align=center;fontSize=12;outlineConnect=0;spacingTop=-6;fontColor=#FFFFFF;sketch=0;shape=mxgraph.sitemap.map;" vertex="1" parent="WIyWlLk6GJQsqaUBKTNV-1">
          <mxGeometry x="1070" y="2680" width="737.14" height="430" as="geometry" />
        </mxCell>
        <mxCell id="PscwnY0Rai2JxpB6ASCo-31" value="" style="whiteSpace=wrap;html=1;aspect=fixed;" vertex="1" parent="WIyWlLk6GJQsqaUBKTNV-1">
          <mxGeometry x="210" y="830" width="180" height="180" as="geometry" />
        </mxCell>
        <mxCell id="PscwnY0Rai2JxpB6ASCo-32" value="" style="whiteSpace=wrap;html=1;aspect=fixed;" vertex="1" parent="WIyWlLk6GJQsqaUBKTNV-1">
          <mxGeometry x="470" y="830" width="180" height="180" as="geometry" />
        </mxCell>
        <mxCell id="PscwnY0Rai2JxpB6ASCo-33" value="" style="whiteSpace=wrap;html=1;aspect=fixed;" vertex="1" parent="WIyWlLk6GJQsqaUBKTNV-1">
          <mxGeometry x="730" y="830" width="180" height="180" as="geometry" />
        </mxCell>
        <mxCell id="PscwnY0Rai2JxpB6ASCo-34" value="" style="whiteSpace=wrap;html=1;aspect=fixed;" vertex="1" parent="WIyWlLk6GJQsqaUBKTNV-1">
          <mxGeometry x="990" y="830" width="180" height="180" as="geometry" />
        </mxCell>
        <mxCell id="PscwnY0Rai2JxpB6ASCo-35" value="" style="whiteSpace=wrap;html=1;aspect=fixed;" vertex="1" parent="WIyWlLk6GJQsqaUBKTNV-1">
          <mxGeometry x="1250" y="830" width="180" height="180" as="geometry" />
        </mxCell>
        <mxCell id="PscwnY0Rai2JxpB6ASCo-36" value="" style="whiteSpace=wrap;html=1;aspect=fixed;" vertex="1" parent="WIyWlLk6GJQsqaUBKTNV-1">
          <mxGeometry x="1510" y="830" width="180" height="180" as="geometry" />
        </mxCell>
        <mxCell id="PscwnY0Rai2JxpB6ASCo-37" value="" style="whiteSpace=wrap;html=1;aspect=fixed;" vertex="1" parent="WIyWlLk6GJQsqaUBKTNV-1">
          <mxGeometry x="220" y="1220" width="180" height="180" as="geometry" />
        </mxCell>
        <mxCell id="PscwnY0Rai2JxpB6ASCo-38" value="" style="whiteSpace=wrap;html=1;aspect=fixed;" vertex="1" parent="WIyWlLk6GJQsqaUBKTNV-1">
          <mxGeometry x="480" y="1220" width="180" height="180" as="geometry" />
        </mxCell>
        <mxCell id="PscwnY0Rai2JxpB6ASCo-39" value="" style="whiteSpace=wrap;html=1;aspect=fixed;" vertex="1" parent="WIyWlLk6GJQsqaUBKTNV-1">
          <mxGeometry x="740" y="1220" width="180" height="180" as="geometry" />
        </mxCell>
        <mxCell id="PscwnY0Rai2JxpB6ASCo-40" value="" style="whiteSpace=wrap;html=1;aspect=fixed;" vertex="1" parent="WIyWlLk6GJQsqaUBKTNV-1">
          <mxGeometry x="1000" y="1220" width="180" height="180" as="geometry" />
        </mxCell>
        <mxCell id="PscwnY0Rai2JxpB6ASCo-41" value="" style="whiteSpace=wrap;html=1;aspect=fixed;" vertex="1" parent="WIyWlLk6GJQsqaUBKTNV-1">
          <mxGeometry x="1260" y="1220" width="180" height="180" as="geometry" />
        </mxCell>
        <mxCell id="PscwnY0Rai2JxpB6ASCo-42" value="" style="whiteSpace=wrap;html=1;aspect=fixed;" vertex="1" parent="WIyWlLk6GJQsqaUBKTNV-1">
          <mxGeometry x="1520" y="1220" width="180" height="180" as="geometry" />
        </mxCell>
        <mxCell id="PscwnY0Rai2JxpB6ASCo-43" value="" style="whiteSpace=wrap;html=1;aspect=fixed;" vertex="1" parent="WIyWlLk6GJQsqaUBKTNV-1">
          <mxGeometry x="210" y="1590" width="180" height="180" as="geometry" />
        </mxCell>
        <mxCell id="PscwnY0Rai2JxpB6ASCo-44" value="" style="whiteSpace=wrap;html=1;aspect=fixed;" vertex="1" parent="WIyWlLk6GJQsqaUBKTNV-1">
          <mxGeometry x="470" y="1590" width="180" height="180" as="geometry" />
        </mxCell>
        <mxCell id="PscwnY0Rai2JxpB6ASCo-45" value="" style="whiteSpace=wrap;html=1;aspect=fixed;" vertex="1" parent="WIyWlLk6GJQsqaUBKTNV-1">
          <mxGeometry x="730" y="1590" width="180" height="180" as="geometry" />
        </mxCell>
        <mxCell id="PscwnY0Rai2JxpB6ASCo-46" value="" style="whiteSpace=wrap;html=1;aspect=fixed;" vertex="1" parent="WIyWlLk6GJQsqaUBKTNV-1">
          <mxGeometry x="990" y="1590" width="180" height="180" as="geometry" />
        </mxCell>
        <mxCell id="PscwnY0Rai2JxpB6ASCo-47" value="" style="whiteSpace=wrap;html=1;aspect=fixed;" vertex="1" parent="WIyWlLk6GJQsqaUBKTNV-1">
          <mxGeometry x="1250" y="1590" width="180" height="180" as="geometry" />
        </mxCell>
        <mxCell id="PscwnY0Rai2JxpB6ASCo-48" value="" style="whiteSpace=wrap;html=1;aspect=fixed;" vertex="1" parent="WIyWlLk6GJQsqaUBKTNV-1">
          <mxGeometry x="1510" y="1590" width="180" height="180" as="geometry" />
        </mxCell>
        <mxCell id="PscwnY0Rai2JxpB6ASCo-49" value="" style="rounded=0;whiteSpace=wrap;html=1;" vertex="1" parent="WIyWlLk6GJQsqaUBKTNV-1">
          <mxGeometry y="3240" width="1920" height="250" as="geometry" />
        </mxCell>
        <mxCell id="PscwnY0Rai2JxpB6ASCo-56" value="" style="rounded=0;whiteSpace=wrap;html=1;" vertex="1" parent="WIyWlLk6GJQsqaUBKTNV-1">
          <mxGeometry x="2050" width="1920" height="130" as="geometry" />
        </mxCell>
        <mxCell id="PscwnY0Rai2JxpB6ASCo-57" value="&lt;font style=&quot;font-size: 26px;&quot;&gt;Hem&lt;/font&gt;" style="text;html=1;align=center;verticalAlign=middle;whiteSpace=wrap;rounded=0;" vertex="1" parent="WIyWlLk6GJQsqaUBKTNV-1">
          <mxGeometry x="2790" y="60" width="60" height="30" as="geometry" />
        </mxCell>
        <mxCell id="PscwnY0Rai2JxpB6ASCo-58" value="&lt;font style=&quot;font-size: 26px;&quot;&gt;Böcker&lt;/font&gt;" style="text;html=1;align=center;verticalAlign=middle;whiteSpace=wrap;rounded=0;" vertex="1" parent="WIyWlLk6GJQsqaUBKTNV-1">
          <mxGeometry x="2900" y="60" width="60" height="30" as="geometry" />
        </mxCell>
        <mxCell id="PscwnY0Rai2JxpB6ASCo-59" value="&lt;font style=&quot;font-size: 26px;&quot;&gt;Om oss&lt;/font&gt;" style="text;html=1;align=center;verticalAlign=middle;whiteSpace=wrap;rounded=0;" vertex="1" parent="WIyWlLk6GJQsqaUBKTNV-1">
          <mxGeometry x="3000" y="60" width="100" height="30" as="geometry" />
        </mxCell>
        <mxCell id="PscwnY0Rai2JxpB6ASCo-60" value="&lt;font style=&quot;font-size: 26px;&quot;&gt;Kontakt&lt;/font&gt;" style="text;html=1;align=center;verticalAlign=middle;whiteSpace=wrap;rounded=0;" vertex="1" parent="WIyWlLk6GJQsqaUBKTNV-1">
          <mxGeometry x="3120" y="60" width="110" height="30" as="geometry" />
        </mxCell>
        <mxCell id="PscwnY0Rai2JxpB6ASCo-61" value="Actor" style="shape=umlActor;verticalLabelPosition=bottom;verticalAlign=top;html=1;outlineConnect=0;" vertex="1" parent="WIyWlLk6GJQsqaUBKTNV-1">
          <mxGeometry x="2310" y="295" width="400" height="340" as="geometry" />
        </mxCell>
        <mxCell id="PscwnY0Rai2JxpB6ASCo-63" value="" style="rounded=0;whiteSpace=wrap;html=1;" vertex="1" parent="WIyWlLk6GJQsqaUBKTNV-1">
          <mxGeometry x="2990" y="130" width="980" height="670" as="geometry" />
        </mxCell>
        <mxCell id="PscwnY0Rai2JxpB6ASCo-64" value="&lt;h1 style=&quot;margin-top: 0px; font-size: 50px;&quot;&gt;&lt;font style=&quot;font-size: 50px;&quot;&gt;Heading&lt;/font&gt;&lt;/h1&gt;&lt;p style=&quot;font-size: 50px;&quot;&gt;&lt;font style=&quot;font-size: 50px;&quot;&gt;Lorem ipsum dolor sit amet, consectetur adipisicing elit, sed do eiusmod tempor incididunt ut labore et dolore magna aliqua.&lt;/font&gt;&lt;/p&gt;" style="text;html=1;whiteSpace=wrap;overflow=hidden;rounded=0;" vertex="1" parent="WIyWlLk6GJQsqaUBKTNV-1">
          <mxGeometry x="3060" y="200" width="850" height="540" as="geometry" />
        </mxCell>
        <mxCell id="PscwnY0Rai2JxpB6ASCo-65" value="&lt;font style=&quot;font-size: 40px;&quot;&gt;49,99€&lt;/font&gt;" style="text;html=1;align=center;verticalAlign=middle;whiteSpace=wrap;rounded=0;" vertex="1" parent="WIyWlLk6GJQsqaUBKTNV-1">
          <mxGeometry x="3040" y="660" width="180" height="50" as="geometry" />
        </mxCell>
        <mxCell id="PscwnY0Rai2JxpB6ASCo-67" value="" style="rounded=0;whiteSpace=wrap;html=1;" vertex="1" parent="WIyWlLk6GJQsqaUBKTNV-1">
          <mxGeometry x="2050" y="1760" width="1920" height="250" as="geometry" />
        </mxCell>
        <mxCell id="PscwnY0Rai2JxpB6ASCo-68" value="&lt;font style=&quot;font-size: 50px;&quot;&gt;Login&lt;/font&gt;" style="text;html=1;align=center;verticalAlign=middle;whiteSpace=wrap;rounded=0;" vertex="1" parent="WIyWlLk6GJQsqaUBKTNV-1">
          <mxGeometry x="4850" y="240" width="420" height="170" as="geometry" />
        </mxCell>
        <mxCell id="PscwnY0Rai2JxpB6ASCo-69" value="" style="rounded=0;whiteSpace=wrap;html=1;" vertex="1" parent="WIyWlLk6GJQsqaUBKTNV-1">
          <mxGeometry x="4770" y="420" width="580" height="60" as="geometry" />
        </mxCell>
        <mxCell id="PscwnY0Rai2JxpB6ASCo-71" value="" style="rounded=0;whiteSpace=wrap;html=1;" vertex="1" parent="WIyWlLk6GJQsqaUBKTNV-1">
          <mxGeometry x="4770" y="550" width="580" height="60" as="geometry" />
        </mxCell>
        <mxCell id="PscwnY0Rai2JxpB6ASCo-73" value="&lt;font style=&quot;font-size: 22px;&quot;&gt;Login&lt;/font&gt;" style="rounded=1;whiteSpace=wrap;html=1;" vertex="1" parent="WIyWlLk6GJQsqaUBKTNV-1">
          <mxGeometry x="5010" y="670" width="120" height="60" as="geometry" />
        </mxCell>
        <mxCell id="PscwnY0Rai2JxpB6ASCo-74" value="" style="rounded=0;whiteSpace=wrap;html=1;" vertex="1" parent="WIyWlLk6GJQsqaUBKTNV-1">
          <mxGeometry x="6787.5" y="705" width="650" height="60" as="geometry" />
        </mxCell>
        <mxCell id="PscwnY0Rai2JxpB6ASCo-75" value="&lt;font style=&quot;font-size: 22px;&quot;&gt;Bild&lt;/font&gt;" style="whiteSpace=wrap;html=1;aspect=fixed;" vertex="1" parent="WIyWlLk6GJQsqaUBKTNV-1">
          <mxGeometry x="6997.5" y="260" width="230" height="230" as="geometry" />
        </mxCell>
        <mxCell id="PscwnY0Rai2JxpB6ASCo-76" value="&lt;font style=&quot;font-size: 22px;&quot;&gt;Lägg till&lt;/font&gt;" style="rounded=1;whiteSpace=wrap;html=1;" vertex="1" parent="WIyWlLk6GJQsqaUBKTNV-1">
          <mxGeometry x="7047.5" y="540" width="130" height="50" as="geometry" />
        </mxCell>
        <mxCell id="PscwnY0Rai2JxpB6ASCo-77" value="" style="rounded=0;whiteSpace=wrap;html=1;" vertex="1" parent="WIyWlLk6GJQsqaUBKTNV-1">
          <mxGeometry x="6787.5" y="840" width="650" height="220" as="geometry" />
        </mxCell>
        <mxCell id="PscwnY0Rai2JxpB6ASCo-78" value="&lt;font style=&quot;font-size: 17px;&quot;&gt;kort beskrivning&lt;/font&gt;" style="text;html=1;align=center;verticalAlign=middle;whiteSpace=wrap;rounded=0;" vertex="1" parent="WIyWlLk6GJQsqaUBKTNV-1">
          <mxGeometry x="6787.5" y="800" width="135" height="30" as="geometry" />
        </mxCell>
        <mxCell id="PscwnY0Rai2JxpB6ASCo-81" value="&lt;font style=&quot;font-size: 17px;&quot;&gt;Tittel&lt;/font&gt;" style="text;html=1;align=center;verticalAlign=middle;whiteSpace=wrap;rounded=0;" vertex="1" parent="WIyWlLk6GJQsqaUBKTNV-1">
          <mxGeometry x="6762.5" y="670" width="95" height="30" as="geometry" />
        </mxCell>
        <mxCell id="PscwnY0Rai2JxpB6ASCo-84" value="&lt;font style=&quot;font-size: 32px;&quot;&gt;Spara&lt;/font&gt;" style="rounded=1;whiteSpace=wrap;html=1;" vertex="1" parent="WIyWlLk6GJQsqaUBKTNV-1">
          <mxGeometry x="7317.5" y="2630" width="120" height="60" as="geometry" />
        </mxCell>
        <mxCell id="PscwnY0Rai2JxpB6ASCo-85" value="&lt;font style=&quot;font-size: 32px;&quot;&gt;Radera&lt;/font&gt;" style="rounded=1;whiteSpace=wrap;html=1;" vertex="1" parent="WIyWlLk6GJQsqaUBKTNV-1">
          <mxGeometry x="6787.5" y="2630" width="120" height="60" as="geometry" />
        </mxCell>
        <mxCell id="PscwnY0Rai2JxpB6ASCo-86" value="Password" style="text;html=1;align=center;verticalAlign=middle;whiteSpace=wrap;rounded=0;" vertex="1" parent="WIyWlLk6GJQsqaUBKTNV-1">
          <mxGeometry x="4770" y="520" width="60" height="30" as="geometry" />
        </mxCell>
        <mxCell id="PscwnY0Rai2JxpB6ASCo-87" value="User" style="text;html=1;align=center;verticalAlign=middle;whiteSpace=wrap;rounded=0;" vertex="1" parent="WIyWlLk6GJQsqaUBKTNV-1">
          <mxGeometry x="4770" y="390" width="60" height="30" as="geometry" />
        </mxCell>
        <mxCell id="PscwnY0Rai2JxpB6ASCo-88" value="" style="rounded=0;whiteSpace=wrap;html=1;" vertex="1" parent="WIyWlLk6GJQsqaUBKTNV-1">
          <mxGeometry x="4100" y="10" width="1920" height="130" as="geometry" />
        </mxCell>
        <mxCell id="PscwnY0Rai2JxpB6ASCo-89" value="&lt;font style=&quot;font-size: 26px;&quot;&gt;Hem&lt;/font&gt;" style="text;html=1;align=center;verticalAlign=middle;whiteSpace=wrap;rounded=0;" vertex="1" parent="WIyWlLk6GJQsqaUBKTNV-1">
          <mxGeometry x="4840" y="70" width="60" height="30" as="geometry" />
        </mxCell>
        <mxCell id="PscwnY0Rai2JxpB6ASCo-90" value="&lt;font style=&quot;font-size: 26px;&quot;&gt;Böcker&lt;/font&gt;" style="text;html=1;align=center;verticalAlign=middle;whiteSpace=wrap;rounded=0;" vertex="1" parent="WIyWlLk6GJQsqaUBKTNV-1">
          <mxGeometry x="4950" y="70" width="60" height="30" as="geometry" />
        </mxCell>
        <mxCell id="PscwnY0Rai2JxpB6ASCo-91" value="&lt;font style=&quot;font-size: 26px;&quot;&gt;Om oss&lt;/font&gt;" style="text;html=1;align=center;verticalAlign=middle;whiteSpace=wrap;rounded=0;" vertex="1" parent="WIyWlLk6GJQsqaUBKTNV-1">
          <mxGeometry x="5050" y="70" width="100" height="30" as="geometry" />
        </mxCell>
        <mxCell id="PscwnY0Rai2JxpB6ASCo-92" value="&lt;font style=&quot;font-size: 26px;&quot;&gt;Kontakt&lt;/font&gt;" style="text;html=1;align=center;verticalAlign=middle;whiteSpace=wrap;rounded=0;" vertex="1" parent="WIyWlLk6GJQsqaUBKTNV-1">
          <mxGeometry x="5170" y="70" width="110" height="30" as="geometry" />
        </mxCell>
        <mxCell id="PscwnY0Rai2JxpB6ASCo-93" value="" style="rounded=0;whiteSpace=wrap;html=1;" vertex="1" parent="WIyWlLk6GJQsqaUBKTNV-1">
          <mxGeometry x="6150" width="1920" height="130" as="geometry" />
        </mxCell>
        <mxCell id="PscwnY0Rai2JxpB6ASCo-94" value="&lt;font style=&quot;font-size: 26px;&quot;&gt;Hem&lt;/font&gt;" style="text;html=1;align=center;verticalAlign=middle;whiteSpace=wrap;rounded=0;" vertex="1" parent="WIyWlLk6GJQsqaUBKTNV-1">
          <mxGeometry x="6890" y="60" width="60" height="30" as="geometry" />
        </mxCell>
        <mxCell id="PscwnY0Rai2JxpB6ASCo-95" value="&lt;font style=&quot;font-size: 26px;&quot;&gt;Böcker&lt;/font&gt;" style="text;html=1;align=center;verticalAlign=middle;whiteSpace=wrap;rounded=0;" vertex="1" parent="WIyWlLk6GJQsqaUBKTNV-1">
          <mxGeometry x="7000" y="60" width="60" height="30" as="geometry" />
        </mxCell>
        <mxCell id="PscwnY0Rai2JxpB6ASCo-96" value="&lt;font style=&quot;font-size: 26px;&quot;&gt;Om oss&lt;/font&gt;" style="text;html=1;align=center;verticalAlign=middle;whiteSpace=wrap;rounded=0;" vertex="1" parent="WIyWlLk6GJQsqaUBKTNV-1">
          <mxGeometry x="7100" y="60" width="100" height="30" as="geometry" />
        </mxCell>
        <mxCell id="PscwnY0Rai2JxpB6ASCo-97" value="&lt;font style=&quot;font-size: 26px;&quot;&gt;Kontakt&lt;/font&gt;" style="text;html=1;align=center;verticalAlign=middle;whiteSpace=wrap;rounded=0;" vertex="1" parent="WIyWlLk6GJQsqaUBKTNV-1">
          <mxGeometry x="7220" y="60" width="110" height="30" as="geometry" />
        </mxCell>
        <mxCell id="PscwnY0Rai2JxpB6ASCo-98" value="" style="rounded=0;whiteSpace=wrap;html=1;" vertex="1" parent="WIyWlLk6GJQsqaUBKTNV-1">
          <mxGeometry x="6150" y="2760" width="1920" height="250" as="geometry" />
        </mxCell>
        <mxCell id="PscwnY0Rai2JxpB6ASCo-99" value="" style="rounded=0;whiteSpace=wrap;html=1;" vertex="1" parent="WIyWlLk6GJQsqaUBKTNV-1">
          <mxGeometry x="4100" y="840" width="1920" height="250" as="geometry" />
        </mxCell>
        <mxCell id="PscwnY0Rai2JxpB6ASCo-100" value="" style="rounded=0;whiteSpace=wrap;html=1;" vertex="1" parent="WIyWlLk6GJQsqaUBKTNV-1">
          <mxGeometry x="2060" y="2315" width="1920" height="3230" as="geometry" />
        </mxCell>
        <mxCell id="PscwnY0Rai2JxpB6ASCo-101" value="" style="rounded=0;whiteSpace=wrap;html=1;" vertex="1" parent="WIyWlLk6GJQsqaUBKTNV-1">
          <mxGeometry x="2060" y="2315" width="1920" height="130" as="geometry" />
        </mxCell>
        <mxCell id="PscwnY0Rai2JxpB6ASCo-102" value="&lt;font style=&quot;font-size: 26px;&quot;&gt;Hem&lt;/font&gt;" style="text;html=1;align=center;verticalAlign=middle;whiteSpace=wrap;rounded=0;" vertex="1" parent="WIyWlLk6GJQsqaUBKTNV-1">
          <mxGeometry x="2800" y="2375" width="60" height="30" as="geometry" />
        </mxCell>
        <mxCell id="PscwnY0Rai2JxpB6ASCo-103" value="&lt;font style=&quot;font-size: 26px;&quot;&gt;Böcker&lt;/font&gt;" style="text;html=1;align=center;verticalAlign=middle;whiteSpace=wrap;rounded=0;" vertex="1" parent="WIyWlLk6GJQsqaUBKTNV-1">
          <mxGeometry x="2910" y="2375" width="60" height="30" as="geometry" />
        </mxCell>
        <mxCell id="PscwnY0Rai2JxpB6ASCo-104" value="&lt;font style=&quot;font-size: 26px;&quot;&gt;Om oss&lt;/font&gt;" style="text;html=1;align=center;verticalAlign=middle;whiteSpace=wrap;rounded=0;" vertex="1" parent="WIyWlLk6GJQsqaUBKTNV-1">
          <mxGeometry x="3010" y="2375" width="100" height="30" as="geometry" />
        </mxCell>
        <mxCell id="PscwnY0Rai2JxpB6ASCo-105" value="&lt;font style=&quot;font-size: 26px;&quot;&gt;Kontakt&lt;/font&gt;" style="text;html=1;align=center;verticalAlign=middle;whiteSpace=wrap;rounded=0;" vertex="1" parent="WIyWlLk6GJQsqaUBKTNV-1">
          <mxGeometry x="3130" y="2375" width="110" height="30" as="geometry" />
        </mxCell>
        <mxCell id="PscwnY0Rai2JxpB6ASCo-106" value="" style="rounded=0;whiteSpace=wrap;html=1;" vertex="1" parent="WIyWlLk6GJQsqaUBKTNV-1">
          <mxGeometry x="2060" y="5295" width="1920" height="250" as="geometry" />
        </mxCell>
        <mxCell id="PscwnY0Rai2JxpB6ASCo-107" value="&lt;font style=&quot;font-size: 42px;&quot;&gt;Böcker&lt;/font&gt;" style="text;html=1;align=center;verticalAlign=middle;whiteSpace=wrap;rounded=0;" vertex="1" parent="WIyWlLk6GJQsqaUBKTNV-1">
          <mxGeometry x="2805" y="2595" width="430" height="100" as="geometry" />
        </mxCell>
        <mxCell id="PscwnY0Rai2JxpB6ASCo-108" value="" style="rounded=0;whiteSpace=wrap;html=1;" vertex="1" parent="WIyWlLk6GJQsqaUBKTNV-1">
          <mxGeometry x="2060" y="2845" width="1920" height="380" as="geometry" />
        </mxCell>
        <mxCell id="PscwnY0Rai2JxpB6ASCo-109" value="" style="rounded=0;whiteSpace=wrap;html=1;" vertex="1" parent="WIyWlLk6GJQsqaUBKTNV-1">
          <mxGeometry x="2060" y="3225" width="1920" height="380" as="geometry" />
        </mxCell>
        <mxCell id="PscwnY0Rai2JxpB6ASCo-110" value="" style="rounded=0;whiteSpace=wrap;html=1;" vertex="1" parent="WIyWlLk6GJQsqaUBKTNV-1">
          <mxGeometry x="2060" y="3605" width="1920" height="380" as="geometry" />
        </mxCell>
        <mxCell id="PscwnY0Rai2JxpB6ASCo-111" value="&lt;font style=&quot;font-size: 25px;&quot;&gt;Populära kategorier&lt;/font&gt;" style="text;html=1;align=center;verticalAlign=middle;whiteSpace=wrap;rounded=0;" vertex="1" parent="WIyWlLk6GJQsqaUBKTNV-1">
          <mxGeometry x="2895" y="2885" width="250" height="30" as="geometry" />
        </mxCell>
        <mxCell id="PscwnY0Rai2JxpB6ASCo-112" value="&lt;font style=&quot;font-size: 25px;&quot;&gt;Nya böcker&lt;/font&gt;" style="text;html=1;align=center;verticalAlign=middle;whiteSpace=wrap;rounded=0;" vertex="1" parent="WIyWlLk6GJQsqaUBKTNV-1">
          <mxGeometry x="2895" y="3265" width="250" height="30" as="geometry" />
        </mxCell>
        <mxCell id="PscwnY0Rai2JxpB6ASCo-113" value="&lt;font style=&quot;font-size: 25px;&quot;&gt;Utvalda böcker&lt;/font&gt;" style="text;html=1;align=center;verticalAlign=middle;whiteSpace=wrap;rounded=0;" vertex="1" parent="WIyWlLk6GJQsqaUBKTNV-1">
          <mxGeometry x="2895" y="3645" width="250" height="30" as="geometry" />
        </mxCell>
        <mxCell id="PscwnY0Rai2JxpB6ASCo-114" value="" style="whiteSpace=wrap;html=1;aspect=fixed;" vertex="1" parent="WIyWlLk6GJQsqaUBKTNV-1">
          <mxGeometry x="2270" y="2975" width="180" height="180" as="geometry" />
        </mxCell>
        <mxCell id="PscwnY0Rai2JxpB6ASCo-115" value="" style="whiteSpace=wrap;html=1;aspect=fixed;" vertex="1" parent="WIyWlLk6GJQsqaUBKTNV-1">
          <mxGeometry x="2530" y="2975" width="180" height="180" as="geometry" />
        </mxCell>
        <mxCell id="PscwnY0Rai2JxpB6ASCo-116" value="" style="whiteSpace=wrap;html=1;aspect=fixed;" vertex="1" parent="WIyWlLk6GJQsqaUBKTNV-1">
          <mxGeometry x="2790" y="2975" width="180" height="180" as="geometry" />
        </mxCell>
        <mxCell id="PscwnY0Rai2JxpB6ASCo-117" value="" style="whiteSpace=wrap;html=1;aspect=fixed;" vertex="1" parent="WIyWlLk6GJQsqaUBKTNV-1">
          <mxGeometry x="3050" y="2975" width="180" height="180" as="geometry" />
        </mxCell>
        <mxCell id="PscwnY0Rai2JxpB6ASCo-118" value="" style="whiteSpace=wrap;html=1;aspect=fixed;" vertex="1" parent="WIyWlLk6GJQsqaUBKTNV-1">
          <mxGeometry x="3310" y="2975" width="180" height="180" as="geometry" />
        </mxCell>
        <mxCell id="PscwnY0Rai2JxpB6ASCo-119" value="" style="whiteSpace=wrap;html=1;aspect=fixed;" vertex="1" parent="WIyWlLk6GJQsqaUBKTNV-1">
          <mxGeometry x="3570" y="2975" width="180" height="180" as="geometry" />
        </mxCell>
        <mxCell id="PscwnY0Rai2JxpB6ASCo-120" value="" style="whiteSpace=wrap;html=1;aspect=fixed;" vertex="1" parent="WIyWlLk6GJQsqaUBKTNV-1">
          <mxGeometry x="2280" y="3365" width="180" height="180" as="geometry" />
        </mxCell>
        <mxCell id="PscwnY0Rai2JxpB6ASCo-121" value="" style="whiteSpace=wrap;html=1;aspect=fixed;" vertex="1" parent="WIyWlLk6GJQsqaUBKTNV-1">
          <mxGeometry x="2540" y="3365" width="180" height="180" as="geometry" />
        </mxCell>
        <mxCell id="PscwnY0Rai2JxpB6ASCo-122" value="" style="whiteSpace=wrap;html=1;aspect=fixed;" vertex="1" parent="WIyWlLk6GJQsqaUBKTNV-1">
          <mxGeometry x="2800" y="3365" width="180" height="180" as="geometry" />
        </mxCell>
        <mxCell id="PscwnY0Rai2JxpB6ASCo-123" value="" style="whiteSpace=wrap;html=1;aspect=fixed;" vertex="1" parent="WIyWlLk6GJQsqaUBKTNV-1">
          <mxGeometry x="3060" y="3365" width="180" height="180" as="geometry" />
        </mxCell>
        <mxCell id="PscwnY0Rai2JxpB6ASCo-124" value="" style="whiteSpace=wrap;html=1;aspect=fixed;" vertex="1" parent="WIyWlLk6GJQsqaUBKTNV-1">
          <mxGeometry x="3320" y="3365" width="180" height="180" as="geometry" />
        </mxCell>
        <mxCell id="PscwnY0Rai2JxpB6ASCo-125" value="" style="whiteSpace=wrap;html=1;aspect=fixed;" vertex="1" parent="WIyWlLk6GJQsqaUBKTNV-1">
          <mxGeometry x="3580" y="3365" width="180" height="180" as="geometry" />
        </mxCell>
        <mxCell id="PscwnY0Rai2JxpB6ASCo-126" value="" style="whiteSpace=wrap;html=1;aspect=fixed;" vertex="1" parent="WIyWlLk6GJQsqaUBKTNV-1">
          <mxGeometry x="2270" y="3735" width="180" height="180" as="geometry" />
        </mxCell>
        <mxCell id="PscwnY0Rai2JxpB6ASCo-127" value="" style="whiteSpace=wrap;html=1;aspect=fixed;" vertex="1" parent="WIyWlLk6GJQsqaUBKTNV-1">
          <mxGeometry x="2530" y="3735" width="180" height="180" as="geometry" />
        </mxCell>
        <mxCell id="PscwnY0Rai2JxpB6ASCo-128" value="" style="whiteSpace=wrap;html=1;aspect=fixed;" vertex="1" parent="WIyWlLk6GJQsqaUBKTNV-1">
          <mxGeometry x="2790" y="3735" width="180" height="180" as="geometry" />
        </mxCell>
        <mxCell id="PscwnY0Rai2JxpB6ASCo-129" value="" style="whiteSpace=wrap;html=1;aspect=fixed;" vertex="1" parent="WIyWlLk6GJQsqaUBKTNV-1">
          <mxGeometry x="3050" y="3735" width="180" height="180" as="geometry" />
        </mxCell>
        <mxCell id="PscwnY0Rai2JxpB6ASCo-130" value="" style="whiteSpace=wrap;html=1;aspect=fixed;" vertex="1" parent="WIyWlLk6GJQsqaUBKTNV-1">
          <mxGeometry x="3310" y="3735" width="180" height="180" as="geometry" />
        </mxCell>
        <mxCell id="PscwnY0Rai2JxpB6ASCo-131" value="" style="whiteSpace=wrap;html=1;aspect=fixed;" vertex="1" parent="WIyWlLk6GJQsqaUBKTNV-1">
          <mxGeometry x="3570" y="3735" width="180" height="180" as="geometry" />
        </mxCell>
        <mxCell id="PscwnY0Rai2JxpB6ASCo-132" value="" style="whiteSpace=wrap;html=1;aspect=fixed;" vertex="1" parent="WIyWlLk6GJQsqaUBKTNV-1">
          <mxGeometry x="2270" y="4085" width="180" height="180" as="geometry" />
        </mxCell>
        <mxCell id="PscwnY0Rai2JxpB6ASCo-133" value="" style="whiteSpace=wrap;html=1;aspect=fixed;" vertex="1" parent="WIyWlLk6GJQsqaUBKTNV-1">
          <mxGeometry x="2530" y="4085" width="180" height="180" as="geometry" />
        </mxCell>
        <mxCell id="PscwnY0Rai2JxpB6ASCo-134" value="" style="whiteSpace=wrap;html=1;aspect=fixed;" vertex="1" parent="WIyWlLk6GJQsqaUBKTNV-1">
          <mxGeometry x="2790" y="4085" width="180" height="180" as="geometry" />
        </mxCell>
        <mxCell id="PscwnY0Rai2JxpB6ASCo-135" value="" style="whiteSpace=wrap;html=1;aspect=fixed;" vertex="1" parent="WIyWlLk6GJQsqaUBKTNV-1">
          <mxGeometry x="3050" y="4085" width="180" height="180" as="geometry" />
        </mxCell>
        <mxCell id="PscwnY0Rai2JxpB6ASCo-136" value="" style="whiteSpace=wrap;html=1;aspect=fixed;" vertex="1" parent="WIyWlLk6GJQsqaUBKTNV-1">
          <mxGeometry x="3310" y="4085" width="180" height="180" as="geometry" />
        </mxCell>
        <mxCell id="PscwnY0Rai2JxpB6ASCo-137" value="" style="whiteSpace=wrap;html=1;aspect=fixed;" vertex="1" parent="WIyWlLk6GJQsqaUBKTNV-1">
          <mxGeometry x="3570" y="4085" width="180" height="180" as="geometry" />
        </mxCell>
        <mxCell id="PscwnY0Rai2JxpB6ASCo-138" value="" style="whiteSpace=wrap;html=1;aspect=fixed;" vertex="1" parent="WIyWlLk6GJQsqaUBKTNV-1">
          <mxGeometry x="2270" y="4365" width="180" height="180" as="geometry" />
        </mxCell>
        <mxCell id="PscwnY0Rai2JxpB6ASCo-139" value="" style="whiteSpace=wrap;html=1;aspect=fixed;" vertex="1" parent="WIyWlLk6GJQsqaUBKTNV-1">
          <mxGeometry x="2530" y="4365" width="180" height="180" as="geometry" />
        </mxCell>
        <mxCell id="PscwnY0Rai2JxpB6ASCo-140" value="" style="whiteSpace=wrap;html=1;aspect=fixed;" vertex="1" parent="WIyWlLk6GJQsqaUBKTNV-1">
          <mxGeometry x="2790" y="4365" width="180" height="180" as="geometry" />
        </mxCell>
        <mxCell id="PscwnY0Rai2JxpB6ASCo-141" value="" style="whiteSpace=wrap;html=1;aspect=fixed;" vertex="1" parent="WIyWlLk6GJQsqaUBKTNV-1">
          <mxGeometry x="3050" y="4365" width="180" height="180" as="geometry" />
        </mxCell>
        <mxCell id="PscwnY0Rai2JxpB6ASCo-142" value="" style="whiteSpace=wrap;html=1;aspect=fixed;" vertex="1" parent="WIyWlLk6GJQsqaUBKTNV-1">
          <mxGeometry x="3310" y="4365" width="180" height="180" as="geometry" />
        </mxCell>
        <mxCell id="PscwnY0Rai2JxpB6ASCo-143" value="" style="whiteSpace=wrap;html=1;aspect=fixed;" vertex="1" parent="WIyWlLk6GJQsqaUBKTNV-1">
          <mxGeometry x="3570" y="4365" width="180" height="180" as="geometry" />
        </mxCell>
        <mxCell id="PscwnY0Rai2JxpB6ASCo-144" value="" style="whiteSpace=wrap;html=1;aspect=fixed;" vertex="1" parent="WIyWlLk6GJQsqaUBKTNV-1">
          <mxGeometry x="2270" y="4647" width="180" height="180" as="geometry" />
        </mxCell>
        <mxCell id="PscwnY0Rai2JxpB6ASCo-145" value="" style="whiteSpace=wrap;html=1;aspect=fixed;" vertex="1" parent="WIyWlLk6GJQsqaUBKTNV-1">
          <mxGeometry x="2530" y="4647" width="180" height="180" as="geometry" />
        </mxCell>
        <mxCell id="PscwnY0Rai2JxpB6ASCo-146" value="" style="whiteSpace=wrap;html=1;aspect=fixed;" vertex="1" parent="WIyWlLk6GJQsqaUBKTNV-1">
          <mxGeometry x="2790" y="4647" width="180" height="180" as="geometry" />
        </mxCell>
        <mxCell id="PscwnY0Rai2JxpB6ASCo-147" value="" style="whiteSpace=wrap;html=1;aspect=fixed;" vertex="1" parent="WIyWlLk6GJQsqaUBKTNV-1">
          <mxGeometry x="3050" y="4647" width="180" height="180" as="geometry" />
        </mxCell>
        <mxCell id="PscwnY0Rai2JxpB6ASCo-148" value="" style="whiteSpace=wrap;html=1;aspect=fixed;" vertex="1" parent="WIyWlLk6GJQsqaUBKTNV-1">
          <mxGeometry x="3310" y="4647" width="180" height="180" as="geometry" />
        </mxCell>
        <mxCell id="PscwnY0Rai2JxpB6ASCo-149" value="" style="whiteSpace=wrap;html=1;aspect=fixed;" vertex="1" parent="WIyWlLk6GJQsqaUBKTNV-1">
          <mxGeometry x="3570" y="4647" width="180" height="180" as="geometry" />
        </mxCell>
        <mxCell id="PscwnY0Rai2JxpB6ASCo-150" value="" style="whiteSpace=wrap;html=1;aspect=fixed;" vertex="1" parent="WIyWlLk6GJQsqaUBKTNV-1">
          <mxGeometry x="2270" y="4945" width="180" height="180" as="geometry" />
        </mxCell>
        <mxCell id="PscwnY0Rai2JxpB6ASCo-151" value="" style="whiteSpace=wrap;html=1;aspect=fixed;" vertex="1" parent="WIyWlLk6GJQsqaUBKTNV-1">
          <mxGeometry x="2530" y="4945" width="180" height="180" as="geometry" />
        </mxCell>
        <mxCell id="PscwnY0Rai2JxpB6ASCo-152" value="" style="whiteSpace=wrap;html=1;aspect=fixed;" vertex="1" parent="WIyWlLk6GJQsqaUBKTNV-1">
          <mxGeometry x="2790" y="4945" width="180" height="180" as="geometry" />
        </mxCell>
        <mxCell id="PscwnY0Rai2JxpB6ASCo-153" value="" style="whiteSpace=wrap;html=1;aspect=fixed;" vertex="1" parent="WIyWlLk6GJQsqaUBKTNV-1">
          <mxGeometry x="3050" y="4945" width="180" height="180" as="geometry" />
        </mxCell>
        <mxCell id="PscwnY0Rai2JxpB6ASCo-154" value="" style="whiteSpace=wrap;html=1;aspect=fixed;" vertex="1" parent="WIyWlLk6GJQsqaUBKTNV-1">
          <mxGeometry x="3310" y="4945" width="180" height="180" as="geometry" />
        </mxCell>
        <mxCell id="PscwnY0Rai2JxpB6ASCo-155" value="" style="whiteSpace=wrap;html=1;aspect=fixed;" vertex="1" parent="WIyWlLk6GJQsqaUBKTNV-1">
          <mxGeometry x="3570" y="4945" width="180" height="180" as="geometry" />
        </mxCell>
        <mxCell id="PscwnY0Rai2JxpB6ASCo-156" value="" style="rounded=0;whiteSpace=wrap;html=1;" vertex="1" parent="WIyWlLk6GJQsqaUBKTNV-1">
          <mxGeometry x="4100" y="1290" width="1920" height="1150" as="geometry" />
        </mxCell>
        <mxCell id="PscwnY0Rai2JxpB6ASCo-157" value="" style="rounded=0;whiteSpace=wrap;html=1;" vertex="1" parent="WIyWlLk6GJQsqaUBKTNV-1">
          <mxGeometry x="4100" y="1290" width="1920" height="130" as="geometry" />
        </mxCell>
        <mxCell id="PscwnY0Rai2JxpB6ASCo-158" value="&lt;font style=&quot;font-size: 26px;&quot;&gt;Hem&lt;/font&gt;" style="text;html=1;align=center;verticalAlign=middle;whiteSpace=wrap;rounded=0;" vertex="1" parent="WIyWlLk6GJQsqaUBKTNV-1">
          <mxGeometry x="4840" y="1350" width="60" height="30" as="geometry" />
        </mxCell>
        <mxCell id="PscwnY0Rai2JxpB6ASCo-159" value="&lt;font style=&quot;font-size: 26px;&quot;&gt;Böcker&lt;/font&gt;" style="text;html=1;align=center;verticalAlign=middle;whiteSpace=wrap;rounded=0;" vertex="1" parent="WIyWlLk6GJQsqaUBKTNV-1">
          <mxGeometry x="4950" y="1350" width="60" height="30" as="geometry" />
        </mxCell>
        <mxCell id="PscwnY0Rai2JxpB6ASCo-160" value="&lt;font style=&quot;font-size: 26px;&quot;&gt;Om oss&lt;/font&gt;" style="text;html=1;align=center;verticalAlign=middle;whiteSpace=wrap;rounded=0;" vertex="1" parent="WIyWlLk6GJQsqaUBKTNV-1">
          <mxGeometry x="5050" y="1350" width="100" height="30" as="geometry" />
        </mxCell>
        <mxCell id="PscwnY0Rai2JxpB6ASCo-161" value="&lt;font style=&quot;font-size: 26px;&quot;&gt;Kontakt&lt;/font&gt;" style="text;html=1;align=center;verticalAlign=middle;whiteSpace=wrap;rounded=0;" vertex="1" parent="WIyWlLk6GJQsqaUBKTNV-1">
          <mxGeometry x="5170" y="1350" width="110" height="30" as="geometry" />
        </mxCell>
        <mxCell id="PscwnY0Rai2JxpB6ASCo-162" value="" style="rounded=0;whiteSpace=wrap;html=1;" vertex="1" parent="WIyWlLk6GJQsqaUBKTNV-1">
          <mxGeometry x="4100" y="2190" width="1920" height="250" as="geometry" />
        </mxCell>
        <mxCell id="PscwnY0Rai2JxpB6ASCo-163" value="&lt;h1 style=&quot;margin-top: 0px;&quot;&gt;&lt;span style=&quot;background-color: initial; font-size: 54px;&quot;&gt;Om oss&lt;br&gt;&lt;/span&gt;&lt;span style=&quot;font-size: 22px; background-color: initial; font-weight: normal;&quot;&gt;&lt;br&gt;Lorem ipsum dolor sit amet, consectetur adipisicing elit, sed do eiusmod tempor incididunt ut labore et dolore magna aliqua.&amp;nbsp;&lt;/span&gt;&lt;span style=&quot;font-size: 22px; background-color: initial; font-weight: normal;&quot;&gt;Lorem ipsum dolor sit amet, consectetur adipisicing elit, sed do eiusmod tempor incididunt ut labore et dolore magna aliqua.&amp;nbsp;&lt;/span&gt;&lt;span style=&quot;font-size: 22px; background-color: initial; font-weight: normal;&quot;&gt;Lorem ipsum dolor sit amet, consectetur adipisicing elit, sed do eiusmod tempor incididunt ut labore et dolore magna aliqua.&amp;nbsp;&lt;/span&gt;&lt;span style=&quot;font-size: 22px; background-color: initial; font-weight: normal;&quot;&gt;Lorem ipsum dolor sit amet, consectetur adipisicing elit, sed do eiusmod tempor incididunt ut labore et dolore magna aliqua.&amp;nbsp;&lt;/span&gt;&lt;span style=&quot;font-size: 22px; background-color: initial; font-weight: normal;&quot;&gt;Lorem ipsum dolor sit amet, consectetur adipisicing elit, sed do eiusmod tempor incididunt ut labore et dolore magna aliqua.&amp;nbsp;&lt;/span&gt;&lt;span style=&quot;font-size: 22px; background-color: initial; font-weight: normal;&quot;&gt;Lorem ipsum dolor sit amet, consectetur adipisicing elit, sed do eiusmod tempor incididunt ut labore et dolore magna aliqua.&amp;nbsp;&lt;/span&gt;&lt;span style=&quot;font-size: 22px; background-color: initial; font-weight: normal;&quot;&gt;Lorem ipsum dolor sit amet, consectetur adipisicing elit, sed do eiusmod tempor incididunt ut labore et dolore magna aliqua.&amp;nbsp;&lt;/span&gt;&lt;span style=&quot;font-size: 22px; background-color: initial; font-weight: normal;&quot;&gt;Lorem ipsum dolor sit amet, consectetur adipisicing elit, sed do eiusmod tempor incididunt ut labore et dolore magna aliqua.&amp;nbsp;&lt;/span&gt;&lt;span style=&quot;font-size: 22px; background-color: initial; font-weight: normal;&quot;&gt;Lorem ipsum dolor sit amet, consectetur adipisicing elit, sed do eiusmod tempor incididunt ut labore et dolore magna aliqua.&amp;nbsp;&lt;/span&gt;&lt;span style=&quot;font-size: 22px; background-color: initial; font-weight: normal;&quot;&gt;Lorem ipsum dolor sit amet, consectetur adipisicing elit, sed do eiusmod tempor incididunt ut labore et dolore magna aliqua.&amp;nbsp;&lt;/span&gt;&lt;span style=&quot;font-size: 22px; background-color: initial; font-weight: normal;&quot;&gt;Lorem ipsum dolor sit amet, consectetur adipisicing elit, sed do eiusmod tempor incididunt ut labore et dolore magna aliqua.&amp;nbsp;&lt;/span&gt;&lt;span style=&quot;font-size: 22px; background-color: initial; font-weight: normal;&quot;&gt;Lorem ipsum dolor sit amet, consectetur adipisicing elit, sed do eiusmod tempor incididunt ut labore et dolore magna aliqua.&amp;nbsp;&lt;/span&gt;&lt;span style=&quot;font-size: 22px; background-color: initial; font-weight: normal;&quot;&gt;Lorem ipsum dolor sit amet, consectetur adipisicing elit, sed do eiusmod tempor incididunt ut labore et dolore magna aliqua.&amp;nbsp;&lt;/span&gt;&lt;span style=&quot;font-size: 22px; background-color: initial; font-weight: normal;&quot;&gt;Lorem ipsum dolor sit amet, consectetur adipisicing elit, sed do eiusmod tempor incididunt ut labore et dolore magna aliqua.&amp;nbsp;&lt;/span&gt;&lt;br&gt;&lt;/h1&gt;" style="text;html=1;whiteSpace=wrap;overflow=hidden;rounded=0;" vertex="1" parent="WIyWlLk6GJQsqaUBKTNV-1">
          <mxGeometry x="4340" y="1550" width="1470" height="740" as="geometry" />
        </mxCell>
        <mxCell id="PscwnY0Rai2JxpB6ASCo-166" value="&lt;span style=&quot;color: rgb(255, 255, 255); font-size: 17px; text-align: start;&quot;&gt;Författare:&lt;/span&gt;" style="text;html=1;align=center;verticalAlign=middle;whiteSpace=wrap;rounded=0;" vertex="1" parent="WIyWlLk6GJQsqaUBKTNV-1">
          <mxGeometry x="6787.5" y="1100" width="140" height="30" as="geometry" />
        </mxCell>
        <mxCell id="PscwnY0Rai2JxpB6ASCo-167" value="&lt;span style=&quot;font-size:14.0pt;line-height:107%;&lt;br/&gt;font-family:Montserrat;mso-fareast-font-family:Calibri;mso-fareast-theme-font:&lt;br/&gt;minor-latin;mso-bidi-font-family:Poppins;mso-ansi-language:SV-FI;mso-fareast-language:&lt;br/&gt;EN-US;mso-bidi-language:AR-SA&quot;&gt;Formgivare eller illustratör:&amp;nbsp;&lt;/span&gt;" style="text;html=1;align=center;verticalAlign=middle;whiteSpace=wrap;rounded=0;" vertex="1" parent="WIyWlLk6GJQsqaUBKTNV-1">
          <mxGeometry x="6785" y="1255" width="255" height="30" as="geometry" />
        </mxCell>
        <mxCell id="PscwnY0Rai2JxpB6ASCo-168" value="&lt;span style=&quot;font-size:14.0pt;line-height:107%;&lt;br/&gt;font-family:Montserrat;mso-fareast-font-family:Calibri;mso-fareast-theme-font:&lt;br/&gt;minor-latin;mso-bidi-font-family:Poppins;mso-ansi-language:SV-FI;mso-fareast-language:&lt;br/&gt;EN-US;mso-bidi-language:AR-SA&quot;&gt;Åldersrekommendation:&amp;nbsp;&lt;/span&gt;" style="text;html=1;align=center;verticalAlign=middle;whiteSpace=wrap;rounded=0;" vertex="1" parent="WIyWlLk6GJQsqaUBKTNV-1">
          <mxGeometry x="6782.5" y="1410" width="215" height="30" as="geometry" />
        </mxCell>
        <mxCell id="PscwnY0Rai2JxpB6ASCo-169" value="&lt;span style=&quot;font-size:14.0pt;line-height:107%;&lt;br/&gt;font-family:Montserrat;mso-fareast-font-family:Calibri;mso-fareast-theme-font:&lt;br/&gt;minor-latin;mso-bidi-font-family:Poppins;mso-ansi-language:SV-FI;mso-fareast-language:&lt;br/&gt;EN-US;mso-bidi-language:AR-SA&quot;&gt;Kategori:&amp;nbsp;&lt;/span&gt;" style="text;html=1;align=center;verticalAlign=middle;whiteSpace=wrap;rounded=0;" vertex="1" parent="WIyWlLk6GJQsqaUBKTNV-1">
          <mxGeometry x="6787.5" y="1570" width="140" height="30" as="geometry" />
        </mxCell>
        <mxCell id="PscwnY0Rai2JxpB6ASCo-170" value="&lt;span style=&quot;font-size:14.0pt;line-height:107%;&lt;br/&gt;font-family:Montserrat;mso-fareast-font-family:Calibri;mso-fareast-theme-font:&lt;br/&gt;minor-latin;mso-bidi-font-family:Poppins;mso-ansi-language:SV-FI;mso-fareast-language:&lt;br/&gt;EN-US;mso-bidi-language:AR-SA&quot;&gt;Genre:&amp;nbsp;&lt;/span&gt;" style="text;html=1;align=center;verticalAlign=middle;whiteSpace=wrap;rounded=0;" vertex="1" parent="WIyWlLk6GJQsqaUBKTNV-1">
          <mxGeometry x="6783" y="1739" width="115" height="30" as="geometry" />
        </mxCell>
        <mxCell id="PscwnY0Rai2JxpB6ASCo-171" value="&lt;span style=&quot;font-size:14.0pt;line-height:107%;&lt;br/&gt;font-family:Montserrat;mso-fareast-font-family:Calibri;mso-fareast-theme-font:&lt;br/&gt;minor-latin;mso-bidi-font-family:Poppins;mso-ansi-language:SV-FI;mso-fareast-language:&lt;br/&gt;EN-US;mso-bidi-language:AR-SA&quot;&gt;Självhjälp Språk:&amp;nbsp;&lt;/span&gt;" style="text;html=1;align=center;verticalAlign=middle;whiteSpace=wrap;rounded=0;" vertex="1" parent="WIyWlLk6GJQsqaUBKTNV-1">
          <mxGeometry x="6775" y="1900" width="160" height="30" as="geometry" />
        </mxCell>
        <mxCell id="PscwnY0Rai2JxpB6ASCo-172" value="&lt;span style=&quot;font-size:14.0pt;line-height:107%;&lt;br/&gt;font-family:Montserrat;mso-fareast-font-family:Calibri;mso-fareast-theme-font:&lt;br/&gt;minor-latin;mso-bidi-font-family:Poppins;mso-ansi-language:SV-FI;mso-fareast-language:&lt;br/&gt;EN-US;mso-bidi-language:AR-SA&quot;&gt;Utgiven:&amp;nbsp;&lt;/span&gt;" style="text;html=1;align=center;verticalAlign=middle;whiteSpace=wrap;rounded=0;" vertex="1" parent="WIyWlLk6GJQsqaUBKTNV-1">
          <mxGeometry x="6758" y="2090" width="132" height="30" as="geometry" />
        </mxCell>
        <mxCell id="PscwnY0Rai2JxpB6ASCo-173" value="&lt;span style=&quot;font-size:14.0pt;line-height:107%;&lt;br/&gt;font-family:Montserrat;mso-fareast-font-family:Calibri;mso-fareast-theme-font:&lt;br/&gt;minor-latin;mso-bidi-font-family:Poppins;mso-ansi-language:SV-FI;mso-fareast-language:&lt;br/&gt;EN-US;mso-bidi-language:AR-SA&quot;&gt;Förlag:&amp;nbsp;&lt;/span&gt;" style="text;html=1;align=center;verticalAlign=middle;whiteSpace=wrap;rounded=0;" vertex="1" parent="WIyWlLk6GJQsqaUBKTNV-1">
          <mxGeometry x="6782.5" y="2260" width="80" height="30" as="geometry" />
        </mxCell>
        <mxCell id="PscwnY0Rai2JxpB6ASCo-174" value="&lt;span style=&quot;font-size:14.0pt;line-height:107%;&lt;br/&gt;font-family:Montserrat;mso-fareast-font-family:Calibri;mso-fareast-theme-font:&lt;br/&gt;minor-latin;mso-bidi-font-family:Poppins;mso-ansi-language:SV-FI;mso-fareast-language:&lt;br/&gt;EN-US;mso-bidi-language:AR-SA&quot;&gt;Antal sidor:&amp;nbsp;&lt;/span&gt;" style="text;html=1;align=center;verticalAlign=middle;whiteSpace=wrap;rounded=0;" vertex="1" parent="WIyWlLk6GJQsqaUBKTNV-1">
          <mxGeometry x="6785" y="2410" width="120" height="30" as="geometry" />
        </mxCell>
        <mxCell id="PscwnY0Rai2JxpB6ASCo-175" value="" style="rounded=0;whiteSpace=wrap;html=1;" vertex="1" parent="WIyWlLk6GJQsqaUBKTNV-1">
          <mxGeometry x="6783" y="1150" width="657" height="60" as="geometry" />
        </mxCell>
        <mxCell id="PscwnY0Rai2JxpB6ASCo-176" value="" style="rounded=0;whiteSpace=wrap;html=1;" vertex="1" parent="WIyWlLk6GJQsqaUBKTNV-1">
          <mxGeometry x="6785" y="1310" width="655" height="60" as="geometry" />
        </mxCell>
        <mxCell id="PscwnY0Rai2JxpB6ASCo-177" value="" style="rounded=0;whiteSpace=wrap;html=1;" vertex="1" parent="WIyWlLk6GJQsqaUBKTNV-1">
          <mxGeometry x="6787.5" y="1480" width="652.5" height="60" as="geometry" />
        </mxCell>
        <mxCell id="PscwnY0Rai2JxpB6ASCo-178" value="" style="rounded=0;whiteSpace=wrap;html=1;" vertex="1" parent="WIyWlLk6GJQsqaUBKTNV-1">
          <mxGeometry x="6787.5" y="1630" width="652.5" height="60" as="geometry" />
        </mxCell>
        <mxCell id="PscwnY0Rai2JxpB6ASCo-179" value="" style="rounded=0;whiteSpace=wrap;html=1;" vertex="1" parent="WIyWlLk6GJQsqaUBKTNV-1">
          <mxGeometry x="6787.5" y="1790" width="652.5" height="60" as="geometry" />
        </mxCell>
        <mxCell id="PscwnY0Rai2JxpB6ASCo-180" value="" style="rounded=0;whiteSpace=wrap;html=1;" vertex="1" parent="WIyWlLk6GJQsqaUBKTNV-1">
          <mxGeometry x="6783" y="1960" width="657" height="60" as="geometry" />
        </mxCell>
        <mxCell id="PscwnY0Rai2JxpB6ASCo-181" value="" style="rounded=0;whiteSpace=wrap;html=1;" vertex="1" parent="WIyWlLk6GJQsqaUBKTNV-1">
          <mxGeometry x="6783" y="2150" width="657" height="60" as="geometry" />
        </mxCell>
        <mxCell id="PscwnY0Rai2JxpB6ASCo-182" value="" style="rounded=0;whiteSpace=wrap;html=1;" vertex="1" parent="WIyWlLk6GJQsqaUBKTNV-1">
          <mxGeometry x="6782.5" y="2315" width="657.5" height="60" as="geometry" />
        </mxCell>
        <mxCell id="PscwnY0Rai2JxpB6ASCo-183" value="" style="rounded=0;whiteSpace=wrap;html=1;" vertex="1" parent="WIyWlLk6GJQsqaUBKTNV-1">
          <mxGeometry x="6780.5" y="2470" width="659.5" height="60" as="geometry" />
        </mxCell>
        <mxCell id="PscwnY0Rai2JxpB6ASCo-184" value="&lt;font style=&quot;font-size: 32px;&quot;&gt;Beskrivning: &lt;br&gt;Visste du att din hjärnas viktigaste uppgift är att hålla dig vid liv? Men hur ska den göra det? Jo, genom att använda känslor, både positiva och negativa, för att styra dina beteenden. Alla knep är tillåtna, till och med att bygga om våra minnen, så att de ska få bästa möjliga effekt. Men det finns ett problem. Hjärnan är utvecklad i en annan tid, med andra hot och faror än i vår moderna värld. Det leder till att vi ibland känner oss hotade, stressade eller till och med deprimerade utan att riktigt förstå varför. &lt;br&gt;&lt;br&gt;Depphjärnan för unga förklarar hur våra känslor uppkommer och varför de finns. Det kan ge både tröst och styrka att inse att det inte behöver vara något fel på oss bara för att vi mår dåligt – ibland kan det till och med vara en smart lösning. &lt;br&gt;&lt;br&gt;Författare: Anders Hansen | Mats Wänblad &lt;br&gt;Formgivare eller illustratör: Lisa Zachrisson &lt;br&gt;Åldersrekommendation: 12-15 år &lt;br&gt;Kategori: Facklitteratur &lt;br&gt;Genre: Kropp &amp;amp; hälsa | &lt;br&gt;Självhjälp Språk: Svenska &lt;br&gt;Utgiven: 2022-10-24 &lt;br&gt;Förlag: Bonnier Fakta &lt;br&gt;Antal sidor: 128 Pris: 12,90&lt;/font&gt;" style="text;html=1;align=left;verticalAlign=middle;whiteSpace=wrap;rounded=0;" vertex="1" parent="WIyWlLk6GJQsqaUBKTNV-1">
          <mxGeometry x="2100" y="860" width="1790" height="800" as="geometry" />
        </mxCell>
        <mxCell id="PscwnY0Rai2JxpB6ASCo-185" value="" style="rounded=0;whiteSpace=wrap;html=1;" vertex="1" parent="WIyWlLk6GJQsqaUBKTNV-1">
          <mxGeometry x="4110" y="2620" width="1920" height="1640" as="geometry" />
        </mxCell>
        <mxCell id="PscwnY0Rai2JxpB6ASCo-186" value="" style="rounded=0;whiteSpace=wrap;html=1;" vertex="1" parent="WIyWlLk6GJQsqaUBKTNV-1">
          <mxGeometry x="4110" y="2620" width="1920" height="130" as="geometry" />
        </mxCell>
        <mxCell id="PscwnY0Rai2JxpB6ASCo-187" value="&lt;font style=&quot;font-size: 26px;&quot;&gt;Hem&lt;/font&gt;" style="text;html=1;align=center;verticalAlign=middle;whiteSpace=wrap;rounded=0;" vertex="1" parent="WIyWlLk6GJQsqaUBKTNV-1">
          <mxGeometry x="4850" y="2680" width="60" height="30" as="geometry" />
        </mxCell>
        <mxCell id="PscwnY0Rai2JxpB6ASCo-188" value="&lt;font style=&quot;font-size: 26px;&quot;&gt;Böcker&lt;/font&gt;" style="text;html=1;align=center;verticalAlign=middle;whiteSpace=wrap;rounded=0;" vertex="1" parent="WIyWlLk6GJQsqaUBKTNV-1">
          <mxGeometry x="4960" y="2680" width="60" height="30" as="geometry" />
        </mxCell>
        <mxCell id="PscwnY0Rai2JxpB6ASCo-189" value="&lt;font style=&quot;font-size: 26px;&quot;&gt;Om oss&lt;/font&gt;" style="text;html=1;align=center;verticalAlign=middle;whiteSpace=wrap;rounded=0;" vertex="1" parent="WIyWlLk6GJQsqaUBKTNV-1">
          <mxGeometry x="5060" y="2680" width="100" height="30" as="geometry" />
        </mxCell>
        <mxCell id="PscwnY0Rai2JxpB6ASCo-190" value="&lt;font style=&quot;font-size: 26px;&quot;&gt;Kontakt&lt;/font&gt;" style="text;html=1;align=center;verticalAlign=middle;whiteSpace=wrap;rounded=0;" vertex="1" parent="WIyWlLk6GJQsqaUBKTNV-1">
          <mxGeometry x="5180" y="2680" width="110" height="30" as="geometry" />
        </mxCell>
        <mxCell id="PscwnY0Rai2JxpB6ASCo-191" value="" style="rounded=0;whiteSpace=wrap;html=1;" vertex="1" parent="WIyWlLk6GJQsqaUBKTNV-1">
          <mxGeometry x="4110" y="4010" width="1920" height="250" as="geometry" />
        </mxCell>
        <mxCell id="PscwnY0Rai2JxpB6ASCo-192" value="&lt;h1 style=&quot;margin-top: 0px;&quot;&gt;&lt;span style=&quot;font-size: 54px;&quot;&gt;Kontakta oss&lt;/span&gt;&lt;/h1&gt;&lt;div&gt;&lt;span style=&quot;font-size: 54px;&quot;&gt;&lt;br&gt;&lt;/span&gt;&lt;/div&gt;&lt;div&gt;&lt;span style=&quot;font-size: 54px;&quot;&gt;Tel: 0403254973&lt;/span&gt;&lt;/div&gt;&lt;div&gt;&lt;span style=&quot;font-size: 54px;&quot;&gt;Mail: Roy@bokhandel.fi&lt;/span&gt;&lt;/div&gt;" style="text;html=1;whiteSpace=wrap;overflow=hidden;rounded=0;" vertex="1" parent="WIyWlLk6GJQsqaUBKTNV-1">
          <mxGeometry x="4340" y="2885" width="1470" height="570" as="geometry" />
        </mxCell>
        <mxCell id="PscwnY0Rai2JxpB6ASCo-194" value="&lt;font style=&quot;font-size: 42px;&quot;&gt;Mail:&lt;/font&gt;" style="text;html=1;align=center;verticalAlign=middle;whiteSpace=wrap;rounded=0;" vertex="1" parent="WIyWlLk6GJQsqaUBKTNV-1">
          <mxGeometry x="4330" y="3280" width="270" height="130" as="geometry" />
        </mxCell>
        <mxCell id="PscwnY0Rai2JxpB6ASCo-195" value="&lt;font style=&quot;font-size: 42px;&quot;&gt;Namn:&lt;/font&gt;" style="text;html=1;align=center;verticalAlign=middle;whiteSpace=wrap;rounded=0;" vertex="1" parent="WIyWlLk6GJQsqaUBKTNV-1">
          <mxGeometry x="4330" y="3515" width="270" height="130" as="geometry" />
        </mxCell>
        <mxCell id="PscwnY0Rai2JxpB6ASCo-196" value="" style="rounded=0;whiteSpace=wrap;html=1;" vertex="1" parent="WIyWlLk6GJQsqaUBKTNV-1">
          <mxGeometry x="4340" y="3395" width="1240" height="120" as="geometry" />
        </mxCell>
        <mxCell id="PscwnY0Rai2JxpB6ASCo-197" value="" style="rounded=0;whiteSpace=wrap;html=1;" vertex="1" parent="WIyWlLk6GJQsqaUBKTNV-1">
          <mxGeometry x="4340" y="3660" width="1240" height="120" as="geometry" />
        </mxCell>
        <mxCell id="PscwnY0Rai2JxpB6ASCo-199" value="&lt;font style=&quot;font-size: 32px;&quot;&gt;Skicka&lt;/font&gt;" style="rounded=1;whiteSpace=wrap;html=1;" vertex="1" parent="WIyWlLk6GJQsqaUBKTNV-1">
          <mxGeometry x="5410" y="3855" width="170" height="85" as="geometry" />
        </mxCell>
      </root>
    </mxGraphModel>
  </diagram>
</mxfile>
